<svg width="360" height="170" viewBox="0 0 360 170" fill="none" xmlns="http://www.w3.org/2000/svg">
<rect width="360" height="170" fill="#6600CC"/>
<mask id="mask0_684_84" style="mask-type:alpha" maskUnits="userSpaceOnUse" x="0" y="0" width="360" height="170">
<rect width="360" height="170" fill="#B8DC91"/>
</mask>
<g mask="url(#mask0_684_84)">
<g clip-path="url(#clip0_684_84)">
<path d="M274.68 145.983C274.68 145.983 246.301 143.604 250.409 112.915C254.517 82.2254 273.095 97.621 278.192 75.5301C283.288 53.4393 320.377 68.5121 317.581 87.2383C314.786 105.965 336.33 102.43 315.775 124.912C295.219 147.393 274.68 145.983 274.68 145.983Z" fill="#ACB3DF"/>
<path d="M338.085 112.507C339.497 112.507 340.642 111.366 340.642 109.958C340.642 108.55 339.497 107.409 338.085 107.409C336.673 107.409 335.529 108.55 335.529 109.958C335.529 111.366 336.673 112.507 338.085 112.507Z" fill="#61FFD2" stroke="#353535" stroke-miterlimit="10"/>
<path d="M323.683 73.3381V78.6059" stroke="white" stroke-linecap="round" stroke-linejoin="round"/>
<path d="M267.351 77.6714C268.763 77.6714 269.908 76.5302 269.908 75.1224C269.908 73.7147 268.763 72.5735 267.351 72.5735C265.939 72.5735 264.795 73.7147 264.795 75.1224C264.795 76.5302 265.939 77.6714 267.351 77.6714Z" fill="#FFBF31"/>
<path d="M267.351 78.521C266.479 78.5274 265.638 78.2003 265 77.607C264.363 77.0137 263.978 76.1993 263.924 75.3315C263.87 74.4637 264.152 73.6084 264.712 72.9416C265.272 72.2747 266.066 71.8471 266.933 71.7466C267.799 71.6462 268.671 71.8806 269.369 72.4017C270.067 72.9227 270.539 73.6907 270.686 74.5476C270.834 75.4045 270.646 76.2852 270.162 77.0085C269.678 77.7318 268.935 78.2427 268.084 78.436C267.845 78.4978 267.598 78.5263 267.351 78.521ZM267.351 73.4231H266.976C266.539 73.5239 266.159 73.7926 265.92 74.1708C265.735 74.4543 265.639 74.7864 265.645 75.1245C265.65 75.4626 265.757 75.7913 265.951 76.0687C266.145 76.346 266.417 76.5593 266.734 76.6814C267.05 76.8034 267.396 76.8286 267.726 76.7537C268.164 76.6529 268.543 76.3842 268.783 76.006C268.948 75.7495 269.041 75.4534 269.052 75.1488C269.063 74.8442 268.991 74.5423 268.845 74.2747C268.698 74.0071 268.483 73.7837 268.22 73.6279C267.957 73.4721 267.657 73.3896 267.351 73.3891V73.4231Z" fill="#353535"/>
<path d="M264.181 122.856C264.071 122.857 263.961 122.837 263.859 122.796C263.756 122.755 263.663 122.695 263.584 122.618L259.852 118.896C259.772 118.817 259.708 118.723 259.665 118.62C259.622 118.516 259.6 118.405 259.6 118.293C259.6 118.181 259.622 118.07 259.665 117.966C259.708 117.863 259.772 117.769 259.852 117.69C260.014 117.533 260.231 117.445 260.457 117.445C260.683 117.445 260.9 117.533 261.062 117.69L264.795 121.411C264.952 121.573 265.04 121.789 265.04 122.014C265.04 122.24 264.952 122.456 264.795 122.618C264.713 122.696 264.617 122.757 264.512 122.798C264.406 122.839 264.294 122.858 264.181 122.856Z" fill="white"/>
<path d="M260.448 122.856C260.281 122.853 260.119 122.802 259.981 122.709C259.843 122.615 259.736 122.483 259.672 122.33C259.609 122.176 259.592 122.007 259.624 121.844C259.656 121.68 259.735 121.53 259.852 121.411L263.584 117.69C263.745 117.53 263.962 117.44 264.189 117.44C264.416 117.44 264.634 117.53 264.794 117.69C264.955 117.85 265.045 118.067 265.045 118.293C265.045 118.519 264.955 118.736 264.794 118.896L261.062 122.618C260.98 122.696 260.884 122.757 260.779 122.798C260.674 122.839 260.561 122.859 260.448 122.856Z" fill="white"/>
<path d="M321.041 112.507C329.043 112.507 335.529 106.04 335.529 98.0629C335.529 90.0857 329.043 83.6189 321.041 83.6189C313.04 83.6189 306.553 90.0857 306.553 98.0629C306.553 106.04 313.04 112.507 321.041 112.507Z" fill="white" stroke="#353535" stroke-miterlimit="10"/>
<path d="M277.578 98.9126H328.711V131.199C328.711 132.101 328.352 132.965 327.713 133.602C327.073 134.24 326.206 134.598 325.302 134.598H280.987C280.083 134.598 279.216 134.24 278.576 133.602C277.937 132.965 277.578 132.101 277.578 131.199V98.9126Z" fill="white" stroke="#353535" stroke-miterlimit="10"/>
<path d="M270.731 85.1622L309.206 63.2385C309.991 62.7913 310.922 62.6732 311.794 62.9103C312.666 63.1474 313.408 63.7202 313.857 64.5028L318.086 71.8794L273.692 97.1759L269.463 89.7993C269.014 89.0167 268.896 88.0885 269.134 87.2189C269.372 86.3493 269.946 85.6095 270.731 85.1622Z" fill="white" stroke="#353535" stroke-miterlimit="10"/>
<path d="M308.258 98.9126H298.031V134.598H308.258V98.9126Z" fill="#61FFD2" stroke="#353535" stroke-miterlimit="10"/>
<path d="M294.408 71.6709L285.529 76.7302L291.449 87.0575L300.328 81.9982L294.408 71.6709Z" fill="#61FFD2" stroke="#353535" stroke-miterlimit="10"/>
<path d="M335.444 77.2466L332.359 81.5118" stroke="white" stroke-linecap="round" stroke-linejoin="round"/>
<path d="M343.148 86.8306L338.307 88.9207" stroke="white" stroke-linecap="round" stroke-linejoin="round"/>
</g>
</g>
<path d="M33.96 63.98C29.8 63.26 27.52 60.4 27.52 57.7V56.38H24.7V57.7C24.7 60.34 22.4 63.26 18.26 63.98L19.38 66.18C22.58 65.56 24.92 63.76 26.1 61.42C27.28 63.76 29.64 65.54 32.84 66.18L33.96 63.98ZM17.86 69.34V71.48H34.54V69.34H17.86ZM39.9984 70.56H50.0784V65.84H37.3584V67.78H47.4784V68.74H37.3784V73.58H50.5584V71.6H39.9984V70.56ZM40.0984 57.86H47.3984V59.6H40.0984V57.86ZM45.0584 62.82V61.62H49.9784V55.84H37.5184V61.62H42.4184V62.82H35.4584V64.9H52.0984V62.82H45.0584ZM54.0769 57.2V59.3H60.2169C59.8369 63.38 57.7969 66.26 53.0969 68.52L54.4769 70.6C61.0169 67.44 62.9169 62.84 62.9169 57.2H54.0769ZM65.7369 55.28V73.7H68.3969V55.28H65.7369ZM80.8353 64.52H77.0753V59H80.8353V64.52ZM74.4553 64.52H72.0553V66.62H85.8953V64.52H83.4553V59H85.9553V56.9H71.9553V59H74.4553V64.52ZM70.6553 69.44V71.58H87.3353V69.44H70.6553ZM103.154 64.8H92.8938V62.74H102.594V60.7H92.8938V58.76H103.014V56.64H90.2138V66.88H103.154V64.8ZM88.2538 69.46V71.6H104.934V69.46H88.2538Z" fill="#61FFD2"/>
<path d="M115.492 69.54V66.8H121.072V64.68H110.392V62.62H120.652V56.48H107.752V58.58H118.052V60.56H107.772V66.8H112.852V69.54H105.852V71.7H122.532V69.54H115.492ZM139.942 68.9H142.582V55.3H139.942V59.22H136.562V61.36H139.942V68.9ZM138.182 64.18C135.302 63.18 134.062 60.82 134.062 58.42V56.42H131.382V58.4C131.382 61.02 130.102 63.58 127.062 64.6L128.442 66.66C130.582 65.88 132.002 64.38 132.782 62.48C133.542 64.18 134.862 65.52 136.782 66.22L138.182 64.18ZM133.062 71.3V67.54H130.422V73.4H142.982V71.3H133.062ZM156.72 59.6H149.42V57.86H156.72V59.6ZM159.3 55.84H146.84V61.62H159.3V55.84ZM161.42 64.68V62.6H144.78V64.68H151.76V65.84H146.68V67.78H156.8V68.74H146.7V73.58H159.88V71.6H149.32V70.56H159.4V65.84H154.4V64.68H161.42ZM167.699 67.8C166.459 67.8 165.539 66.96 165.539 65.56C165.539 64.16 166.459 63.3 167.699 63.3C168.939 63.3 169.839 64.16 169.839 65.54C169.839 66.96 168.939 67.8 167.699 67.8ZM167.699 61.16C165.019 61.16 163.019 62.98 163.019 65.54C163.019 68.14 165.019 69.96 167.699 69.96C170.359 69.96 172.339 68.14 172.339 65.54C172.339 62.98 170.359 61.16 167.699 61.16ZM168.999 55.62H166.359V58.02H162.279V60.12H172.999V58.02H168.999V55.62ZM179.479 62.5H176.839V55.3H174.199V73.72H176.839V64.68H179.479V62.5ZM186.837 63.7H183.337V58.84H186.837V63.7ZM192.737 60.3V62.16H189.417V60.3H192.737ZM189.417 64.26H192.737V68.72H195.377V55.3H192.737V58.2H189.417V56.78H180.737V65.78H189.417V64.26ZM185.857 71.3V67.46H183.217V73.4H195.777V71.3H185.857ZM21.06 84.04H18.42V96.2H20.02C22.7 96.2 25.66 96.04 28.72 95.4L28.46 93.24C25.88 93.74 23.38 93.94 21.06 94V84.04ZM34.86 89.24H32.28V82.28H29.64V100.68H32.28V91.42H34.86V89.24ZM46.3184 84.24H42.1984V82.28H39.5384V84.24H35.4584V86.3H46.2984L46.3184 84.24ZM38.8784 90.5C38.8784 89.5 39.6984 88.96 40.8784 88.96C42.0384 88.96 42.8784 89.5 42.8784 90.5C42.8784 91.52 42.0384 92.06 40.8784 92.06C39.6984 92.06 38.8784 91.52 38.8784 90.5ZM45.3984 90.5C45.3984 88.42 43.5184 86.96 40.8784 86.96C38.2384 86.96 36.3584 88.42 36.3584 90.5C36.3584 92.62 38.2384 94.06 40.8784 94.06C43.5184 94.06 45.3984 92.62 45.3984 90.5ZM40.7184 95.06H38.0784V100.4H50.6184V98.3H40.7184V95.06ZM49.9584 87.92V82.3H47.3184V96.08H49.9584V90.1H52.3984V87.92H49.9584ZM56.0969 91.32H59.7169V89.28H56.0969V86.42H60.4169V84.32H53.5969V96.66H54.8569C57.4969 96.66 59.2569 96.62 61.3369 96.28L61.1169 94.18C59.4569 94.44 58.0169 94.52 56.0969 94.54V91.32ZM62.5569 89H60.5569V91.14H62.5569V99.9H65.0169V82.64H62.5569V89ZM66.3769 82.28V100.7H68.8769V82.28H66.3769ZM80.2953 96.48V92.64H85.5553V90.52H75.2553V85.68H85.4153V83.56H72.5953V92.64H77.6553V96.48H70.6553V98.64H87.3353V96.48H80.2953ZM100.645 85.06H97.605V82.76H95.005V85.06H91.965V87.18H100.645V85.06ZM100.185 92.56V92.42C100.185 91.66 100.045 90.96 99.785 90.36H101.765V92.56H100.185ZM96.265 94.66C95.325 94.66 94.625 93.84 94.625 92.44C94.625 91.02 95.325 90.2 96.265 90.2C97.225 90.2 97.905 91.02 97.905 92.44C97.905 93.84 97.225 94.66 96.265 94.66ZM101.765 88.26H99.785V90.36C99.165 88.92 97.865 88 96.265 88C93.985 88 92.345 89.84 92.345 92.44C92.345 95.04 93.985 96.88 96.265 96.88C97.825 96.88 99.065 96.02 99.725 94.66H101.765V99.9H104.225V82.62H101.765V88.26ZM105.285 82.3V100.72H107.785V82.3H105.285ZM117.863 90.32C116.183 90.58 114.723 90.68 112.743 90.7V89.14H117.263V87.14H112.743V85.62H117.443V83.54H110.203V92.82H111.483C114.223 92.82 116.003 92.76 118.103 92.42L117.863 90.32ZM112.603 96.44H122.643V100.74H125.283V94.34H112.603V96.44ZM122.783 82.3V86.82H121.303V82.62H118.843V93.42H121.303V88.92H122.783V93.54H125.283V82.3H122.783ZM139.802 82.28V100.76H142.442V82.28H139.802ZM132.542 83.58C129.762 83.58 127.702 86.1 127.702 90.14C127.702 94.2 129.762 96.74 132.542 96.74C135.322 96.74 137.382 94.2 137.382 90.14C137.382 86.1 135.322 83.58 132.542 83.58ZM132.542 85.96C133.902 85.96 134.842 87.42 134.842 90.14C134.842 92.88 133.902 94.34 132.542 94.34C131.182 94.34 130.242 92.88 130.242 90.14C130.242 87.42 131.182 85.96 132.542 85.96ZM165.052 87.76C162.652 87.08 161.672 85.42 161.672 83.74V82.72H159.012V83.74C159.012 84.98 158.332 86.28 156.832 87.1C155.312 86.26 154.632 84.94 154.632 83.74V82.72H152.012V83.74C152.012 85.36 151.032 87.04 148.612 87.76L149.812 89.68C151.592 89.12 152.712 88.06 153.352 86.72C153.972 87.96 155.092 89 156.832 89.52C158.572 89.02 159.672 87.98 160.292 86.74C160.932 88.06 162.072 89.14 163.872 89.68L165.052 87.76ZM153.092 96.36H163.252V94.26H150.472V100.52H163.412V98.42H153.092V96.36ZM158.152 91V89.56H155.512V91H148.512V93.1H165.192V91H158.152ZM171.05 94.34C169.67 94.34 168.75 92.88 168.75 90.14C168.75 87.42 169.67 85.96 171.05 85.96C172.41 85.96 173.35 87.42 173.35 90.14C173.35 92.88 172.41 94.34 171.05 94.34ZM171.05 83.58C168.25 83.58 166.21 86.1 166.21 90.14C166.21 94.2 168.25 96.74 171.05 96.74C173.83 96.74 175.89 94.2 175.89 90.14C175.89 86.1 173.83 83.58 171.05 83.58ZM183.21 89.24H180.53V82.3H177.89V100.72H180.53V91.42H183.21V89.24ZM199.008 82.3H196.348V95.62H199.008V82.3ZM195.188 91.32C192.208 90.34 190.868 88.08 190.868 85.92V85.7H194.508V83.62H184.488V85.7H188.188V85.92C188.188 88.22 186.848 90.64 183.788 91.6L185.128 93.66C187.268 92.96 188.748 91.54 189.568 89.74C190.408 91.38 191.808 92.7 193.848 93.34L195.188 91.32ZM189.388 98.3V94.42H186.748V100.4H199.468V98.3H189.388ZM204.647 86.14H210.607V84H202.007V96.34H203.587C206.787 96.34 209.307 96.24 170.087 95.74L211.827 93.56C209.447 93.96 207.267 94.1 204.647 94.14V86.14ZM218.407 89.1H215.727V82.3H213.087V100.76H215.727V91.28H218.407V89.1ZM220.785 93.96H222.705L223.125 86.58L223.225 83.8H220.265L220.365 86.58L220.785 93.96ZM221.745 99.28C222.785 99.28 223.585 98.44 223.585 97.36C223.585 96.28 222.785 95.44 221.745 95.44C220.705 95.44 219.925 96.28 219.925 97.36C219.925 98.44 220.705 99.28 221.745 99.28Z" fill="white"/>
<rect x="16" y="20" width="108" height="24" fill="black"/>
<path d="M34.744 34.732H36.186V25.436H34.744V28.628H32.56V29.846H34.744V34.732ZM32.784 31.554C31.188 31.82 29.802 31.876 27.632 31.89V30.154H31.846V26.29H26.176V27.452H30.404V29.048H26.204V33.066H27.198C29.662 33.066 31.16 33.01 32.91 32.73L32.784 31.554ZM29.368 36.664V34.032H27.926V37.84H36.536V36.664H29.368ZM47.8889 25.436H46.4469V33.136H47.8889V25.436ZM45.2989 31.47C43.3389 30.924 42.1909 29.524 42.1909 28.04V28.026H44.9069V26.878H42.1909V25.436H40.7489V26.878H38.0049V28.026H40.7489V28.04C40.7489 29.636 39.6149 31.162 37.6409 31.764L38.3269 32.87C39.8529 32.408 40.9309 31.4 41.4909 30.126C42.0789 31.274 43.1709 32.184 44.6409 32.59L45.2989 31.47ZM43.6609 36.958C41.8549 36.958 40.8189 36.524 40.8189 35.726C40.8189 34.928 41.8549 34.494 43.6609 34.494C45.4669 34.494 46.5029 34.928 46.5029 35.726C46.5029 36.524 45.4669 36.958 43.6609 36.958ZM43.6609 33.374C41.0009 33.374 39.3769 34.242 39.3769 35.726C39.3769 37.21 41.0009 38.078 43.6609 38.078C46.3209 38.078 47.9449 37.21 47.9449 35.726C47.9449 34.242 46.3209 33.374 43.6609 33.374ZM51.9703 26.766V27.942H56.4783C56.2263 30.854 54.6583 33.08 51.3403 34.676L52.1103 35.824C56.4503 33.724 57.9623 30.532 57.9623 26.766H51.9703ZM60.2443 25.436V38.078H61.6863V25.436H60.2443ZM69.9453 30.812C68.3493 31.12 66.9493 31.218 65.1993 31.232V26.024H63.7573V32.408H64.7093C66.7253 32.408 68.3073 32.324 70.1273 31.974L69.9453 30.812ZM66.6693 34.55H72.0733V36.776H66.6693V34.55ZM65.2553 37.924H73.4873V33.402H65.2553V37.924ZM72.0453 25.436V26.724H68.7273V27.83H72.0453V28.936H68.7273V30.056H72.0453V32.856H73.4873V25.436H72.0453ZM77.4427 37H83.6867V35.628H79.0667V32.296H82.8467V30.924H79.0667V28.054H83.5327V26.696H77.4427V37ZM86.5652 37H88.4832L91.7032 26.696H90.0512L88.5252 32.03C88.1892 33.206 87.9372 34.214 87.5872 35.404H87.5172C87.1532 34.214 86.9292 33.206 86.5792 32.03L85.0532 26.696H83.3312L86.5652 37ZM91.9097 37H98.1537V35.628H93.5337V32.296H97.3137V30.924H93.5337V28.054H97.9997V26.696H91.9097V37ZM99.1842 37H100.724V32.142C100.724 31.022 100.598 29.832 100.514 28.768H100.584L101.662 30.924L105.078 37H106.744V26.696H105.204V31.498C105.204 32.618 105.33 33.864 105.414 34.928H105.344L104.266 32.744L100.85 26.696H99.1842V37ZM110.446 37H112.07V28.054H115.108V26.696H107.422V28.054H110.446V37Z" fill="white"/>
<path d="M17.528 138H23.06V137.052H20.624C20.18 137.052 19.64 137.1 19.184 137.136C21.248 135.18 22.628 133.392 22.628 131.64C22.628 130.068 21.644 129.036 20.072 129.036C18.956 129.036 18.2 129.552 17.48 130.332L18.116 130.956C18.596 130.38 19.22 129.936 19.94 129.936C21.032 129.936 21.56 130.668 21.56 131.676C21.56 133.188 20.288 134.94 17.528 137.352V138ZM26.5123 138.156C28.1803 138.156 29.2483 136.632 29.2483 133.572C29.2483 130.524 28.1803 129.036 26.5123 129.036C24.8323 129.036 23.7643 130.512 23.7643 133.572C23.7643 136.632 24.8323 138.156 26.5123 138.156ZM26.5123 137.28C25.5043 137.28 24.8323 136.164 24.8323 133.572C24.8323 131.004 25.5043 129.924 26.5123 129.924C27.5083 129.924 28.1803 131.004 28.1803 133.572C28.1803 136.164 27.5083 137.28 26.5123 137.28ZM29.8805 138H35.4125V137.052H32.9765C32.5325 137.052 31.9925 137.1 31.5365 137.136C33.6005 135.18 34.9805 133.392 34.9805 131.64C34.9805 130.068 33.9965 129.036 32.4245 129.036C31.3085 129.036 30.5525 129.552 29.8325 130.332L30.4685 130.956C30.9485 130.38 31.5725 129.936 32.2925 129.936C33.3845 129.936 33.9125 130.668 33.9125 131.676C33.9125 133.188 32.6405 134.94 29.8805 137.352V138ZM36.0567 138H41.5887V137.052H39.1527C38.7087 137.052 38.1687 137.1 37.7127 137.136C39.7767 135.18 41.1567 133.392 41.1567 131.64C41.1567 130.068 40.1727 129.036 38.6007 129.036C37.4847 129.036 36.7287 129.552 36.0087 130.332L36.6447 130.956C37.1247 130.38 37.7487 129.936 38.4687 129.936C39.5607 129.936 40.0887 130.668 40.0887 131.676C40.0887 133.188 38.8167 134.94 36.0567 137.352V138ZM43.373 138.156C43.805 138.156 44.165 137.82 44.165 137.328C44.165 136.836 43.805 136.476 43.373 136.476C42.941 136.476 42.581 136.836 42.581 137.328C42.581 137.82 42.941 138.156 43.373 138.156ZM47.9008 138.156C49.5688 138.156 50.6368 136.632 50.6368 133.572C50.6368 130.524 49.5688 129.036 47.9008 129.036C46.2208 129.036 45.1528 130.512 45.1528 133.572C45.1528 136.632 46.2208 138.156 47.9008 138.156ZM47.9008 137.28C46.8928 137.28 46.2208 136.164 46.2208 133.572C46.2208 131.004 46.8928 129.924 47.9008 129.924C48.8968 129.924 49.5688 131.004 49.5688 133.572C49.5688 136.164 48.8968 137.28 47.9008 137.28ZM53.8731 133.848C52.8291 133.848 52.3011 133.08 52.3011 131.892C52.3011 130.692 52.9491 129.9 53.7891 129.9C54.9171 129.9 55.5891 130.86 55.7091 132.672C55.1211 133.512 54.4611 133.848 53.8731 133.848ZM51.4371 137.256C51.9291 137.772 52.6011 138.156 53.5491 138.156C55.2051 138.156 56.7411 136.788 56.7411 133.224C56.7411 130.428 55.4811 129.036 53.7891 129.036C52.4211 129.036 51.2691 130.188 51.2691 131.892C51.2691 133.716 52.2291 134.664 53.6931 134.664C54.4371 134.664 55.1931 134.232 55.7211 133.572C55.6371 136.308 54.6531 137.244 53.5131 137.244C52.9491 137.244 52.4091 136.992 52.0371 136.572L51.4371 137.256ZM58.5853 138.156C59.0173 138.156 59.3773 137.82 59.3773 137.328C59.3773 136.836 59.0173 136.476 58.5853 136.476C58.1533 136.476 57.7933 136.836 57.7933 137.328C57.7933 137.82 58.1533 138.156 58.5853 138.156ZM60.3052 138H65.8372V137.052H63.4012C62.9572 137.052 62.4172 137.1 61.9612 137.136C64.0252 135.18 65.4052 133.392 65.4052 131.64C65.4052 130.068 64.4170 129.036 62.8492 129.036C61.7332 129.036 60.9772 129.552 60.2572 130.332L60.8932 130.956C61.3732 130.38 61.9972 129.936 62.7172 129.936C63.8092 129.936 64.3372 130.668 64.3372 131.676C64.3372 133.188 63.0652 134.94 60.3052 137.352V138ZM69.1214 138.156C70.6814 138.156 71.9414 137.22 71.9414 135.648C71.9414 134.448 71.1134 133.656 70.0694 133.416V133.368C71.0054 133.02 71.6414 132.312 71.6414 131.244C71.6414 129.828 70.5614 129.036 69.0854 129.036C68.0654 129.036 67.2854 129.48 66.6254 130.092L67.2134 130.788C67.7054 130.296 68.3294 129.936 69.0374 129.912C69.9494 129.936 70.5254 130.476 70.5254 131.328C70.5254 132.276 69.9014 133.008 68.0894 133.008V133.848C70.1174 133.848 70.8254 134.556 70.8254 135.612C70.8254 136.62 70.0814 137.244 69.0374 137.244C68.0414 137.244 67.3694 136.776 66.8534 136.236L66.3014 136.956C66.8774 137.58 67.7414 138.156 69.1214 138.156ZM74.8853 135.06H77.9573V134.22H74.8853V135.06ZM80.745 138H86.277V137.052H83.841C83.397 137.052 82.857 137.1 82.401 137.136C84.465 135.18 85.845 133.392 85.845 131.64C85.845 130.068 84.861 129.036 83.289 129.036C82.173 129.036 81.417 129.552 80.697 130.332L81.333 130.956C81.813 130.38 82.437 129.936 83.157 129.936C84.249 129.936 84.777 130.668 84.777 131.676C84.777 133.188 83.505 134.94 80.745 137.352V138ZM89.7293 138.156C91.3973 138.156 92.4653 136.632 92.4653 133.572C92.4653 130.524 91.3973 129.036 89.7293 129.036C88.0493 129.036 86.9813 130.512 86.9813 133.572C86.9813 136.632 88.0493 138.156 89.7293 138.156ZM89.7293 137.28C88.7213 137.28 88.0493 136.164 88.0493 133.572C88.0493 131.004 88.7213 129.924 89.7293 129.924C90.7253 129.924 91.3973 131.004 91.3973 133.572C91.3973 136.164 90.7253 137.28 89.7293 137.28ZM93.0975 138H98.6295V137.052H96.1935C95.7495 137.052 95.2095 137.1 94.7535 137.136C96.8175 135.18 98.1975 133.392 98.1975 131.64C98.1975 130.068 97.2135 129.036 95.6415 129.036C94.5255 129.036 93.7695 129.552 93.0495 130.332L93.6855 130.956C94.1655 130.38 94.7895 129.936 95.5095 129.936C96.6015 129.936 97.1295 130.668 97.1295 131.676C97.1295 133.188 95.8575 134.94 93.0975 137.352V138ZM99.2738 138H104.806V137.052H102.37C101.926 137.052 101.386 137.1 100.93 137.136C102.994 135.18 104.374 133.392 104.374 131.64C104.374 130.068 103.39 129.036 101.818 129.036C100.702 129.036 99.9458 129.552 99.2258 130.332L99.8618 130.956C100.342 130.38 100.966 129.936 101.686 129.936C102.778 129.936 103.306 130.668 103.306 131.676C103.306 133.188 102.034 134.94 99.2738 137.352V138ZM106.59 138.156C107.022 138.156 107.382 137.82 107.382 137.328C107.382 136.836 107.022 136.476 106.59 136.476C106.158 136.476 105.798 136.836 105.798 137.328C105.798 137.82 106.158 138.156 106.59 138.156ZM108.838 138H113.662V137.088H111.898V129.204H111.058C110.578 129.48 110.014 129.684 109.234 129.828V130.524H110.794V137.088H108.838V138ZM117.294 138.156C118.962 138.156 120.03 136.632 120.03 133.572C120.03 130.524 118.962 129.036 117.294 129.036C115.614 129.036 114.546 130.512 114.546 133.572C114.546 136.632 115.614 138.156 117.294 138.156ZM117.294 137.28C116.286 137.28 115.614 136.164 115.614 133.572C115.614 131.004 116.286 129.924 117.294 129.924C118.29 129.924 118.962 131.004 118.962 133.572C118.962 136.164 118.29 137.28 117.294 137.28ZM121.802 138.156C122.234 138.156 122.594 137.82 122.594 137.328C122.594 136.836 122.234 136.476 121.802 136.476C121.37 136.476 121.01 136.836 121.01 137.328C121.01 137.82 121.37 138.156 121.802 138.156ZM126.33 138.156C127.998 138.156 129.066 136.632 129.066 133.572C129.066 130.524 127.998 129.036 126.33 129.036C124.65 129.036 123.582 130.512 123.582 133.572C123.582 136.632 124.65 138.156 126.33 138.156ZM126.33 137.28C125.322 137.28 124.65 136.164 124.65 133.572C124.65 131.004 125.322 129.924 126.33 129.924C127.326 129.924 127.998 131.004 127.998 133.572C127.998 136.164 127.326 137.28 126.33 137.28ZM131.546 138H132.686C132.818 134.556 133.202 132.516 135.266 129.864V129.204H129.758V130.14H134.018C132.302 132.54 131.69 134.664 131.546 138Z" fill="#C19BF0"/>
<defs>
<clipPath id="clip0_684_84">
<rect width="94" height="84.0471" fill="white" transform="translate(250 61.9529)"/>
</clipPath>
</defs>
</svg>
